# Exported from Wings 3D 2.1.5
mtllib palm.mtl
o tree
#65 vertices, 65 faces
v 2.29610059 4.94327720 0.0000000e+0
v 2.12132034 4.94327720 0.87867966
v 1.62358830 4.94327720 1.62358830
v 0.87867966 4.94327720 2.12132034
v 1.4059561e-16 4.94327720 2.29610059
v -0.87867966 4.94327720 2.12132034
v -1.62358830 4.94327720 1.62358830
v -2.12132034 4.94327720 0.87867966
v -2.29610059 4.94327720 2.8119122e-16
v -2.12132034 4.94327720 -0.87867966
v -1.62358830 4.94327720 -1.62358830
v -0.87867966 4.94327720 -2.12132034
v -4.2178684e-16 4.94327720 -2.29610059
v 0.87867966 4.94327720 -2.12132034
v 1.62358830 4.94327720 -1.62358830
v 2.12132034 4.94327720 -0.87867966
v 4.24264069 3.64264069 0.0000000e+0
v 3.91968889 3.64264069 1.62358830
v 3.00000000 3.64264069 3.00000000
v 1.62358830 3.64264069 3.91968889
v 2.5978682e-16 3.64264069 4.24264069
v -1.62358830 3.64264069 3.91968889
v -3.00000000 3.64264069 3.00000000
v -3.91968889 3.64264069 1.62358830
v -4.24264069 3.64264069 5.1957363e-16
v -3.91968889 3.64264069 -1.62358830
v -3.00000000 3.64264069 -3.00000000
v -1.62358830 3.64264069 -3.91968889
v -7.7936045e-16 3.64264069 -4.24264069
v 1.62358830 3.64264069 -3.91968889
v 3.00000000 3.64264069 -3.00000000
v 3.91968889 3.64264069 -1.62358830
v 5.54327720 1.69610059 0.0000000e+0
v 5.12132034 1.69610059 2.12132034
v 3.91968889 1.69610059 3.91968889
v 2.12132034 1.69610059 5.12132034
v 3.3942783e-16 1.69610059 5.54327720
v -2.12132034 1.69610059 5.12132034
v -3.91968889 1.69610059 3.91968889
v -5.12132034 1.69610059 2.12132034
v -5.54327720 1.69610059 6.7885567e-16
v -5.12132034 1.69610059 -2.12132034
v -3.91968889 1.69610059 -3.91968889
v -2.12132034 1.69610059 -5.12132034
v -1.0182835e-15 1.69610059 -5.54327720
v 2.12132034 1.69610059 -5.12132034
v 3.91968889 1.69610059 -3.91968889
v 5.12132034 1.69610059 -2.12132034
v 6.00000000 -0.60000000 0.0000000e+0
v 5.54327720 -0.60000000 2.29610059
v 4.24264069 -0.60000000 4.24264069
v 2.29610059 -0.60000000 5.54327720
v 3.6739404e-16 -0.60000000 6.00000000
v -2.29610059 -0.60000000 5.54327720
v -4.24264069 -0.60000000 4.24264069
v -5.54327720 -0.60000000 2.29610059
v -6.00000000 -0.60000000 7.3478808e-16
v -5.54327720 -0.60000000 -2.29610059
v -4.24264069 -0.60000000 -4.24264069
v -2.29610059 -0.60000000 -5.54327720
v -1.1021821e-15 -0.60000000 -6.00000000
v 2.29610059 -0.60000000 -5.54327720
v 4.24264069 -0.60000000 -4.24264069
v 5.54327720 -0.60000000 -2.29610059
v 0.0000000e+0 5.40000000 0.0000000e+0
vt 0.0000000e+0 0.25000000
vt 1.9030117e-2 0.34567086
vt 1.9030117e-2 0.15432914
vt 1.9030117e-2 0.25000000
vt 3.6611652e-2 0.33838835
vt 3.6611652e-2 0.16161165
vt 7.3223305e-2 0.42677670
vt 7.3223305e-2 7.3223305e-2
vt 7.3223305e-2 0.25000000
vt 8.6679629e-2 0.41332037
vt 8.6679629e-2 0.31764951
vt 8.6679629e-2 8.6679629e-2
vt 8.6679629e-2 0.18235049
vt 0.12500000 0.37500000
vt 0.12500000 0.12500000
vt 0.15432914 0.48096988
vt 0.15432914 1.9030117e-2
vt 0.15432914 0.25000000
vt 0.16161165 0.46338835
vt 0.16161165 3.6611652e-2
vt 0.16161165 0.21338835
vt 0.16161165 0.28661165
vt 0.18235049 0.41332037
vt 0.18235049 0.31764951
vt 0.18235049 8.6679629e-2
vt 0.18235049 0.18235049
vt 0.21338835 0.33838835
vt 0.21338835 0.16161165
vt 0.25000000 0.48096988
vt 0.25000000 0.50000000
vt 0.25000000 0.34567086
vt 0.25000000 0.42677670
vt 0.25000000 0.0000000e+0
vt 0.25000000 1.9030117e-2
vt 0.25000000 7.3223305e-2
vt 0.25000000 0.15432914
vt 0.25000000 0.25000000
vt 0.28661165 0.16161165
vt 0.28661165 0.33838835
vt 0.31764951 8.6679629e-2
vt 0.31764951 0.18235049
vt 0.31764951 0.31764951
vt 0.31764951 0.41332037
vt 0.33838835 0.21338835
vt 0.33838835 0.28661165
vt 0.33838835 3.6611652e-2
vt 0.33838835 0.46338835
vt 0.34567086 1.9030117e-2
vt 0.34567086 0.25000000
vt 0.34567086 0.48096988
vt 0.37500000 0.12500000
vt 0.37500000 0.37500000
vt 0.41332037 0.31764951
vt 0.41332037 0.41332037
vt 0.41332037 8.6679629e-2
vt 0.41332037 0.18235049
vt 0.42677670 7.3223305e-2
vt 0.42677670 0.25000000
vt 0.42677670 0.42677670
vt 0.46338835 0.33838835
vt 0.46338835 0.16161165
vt 0.48096988 0.34567086
vt 0.48096988 0.15432914
vt 0.48096988 0.25000000
vt 0.50000000 0.25000000
vt 0.50000000 0.25000000
vt 0.51903012 0.15432914
vt 0.51903012 0.34567086
vt 0.57322330 7.3223305e-2
vt 0.57322330 0.42677670
vt 0.65432914 0.48096988
vt 0.65432914 1.9030117e-2
vt 0.75000000 0.0000000e+0
vt 0.75000000 0.50000000
vt 0.84567086 1.9030117e-2
vt 0.84567086 0.48096988
vt 0.92677670 7.3223305e-2
vt 0.92677670 0.42677670
vt 0.98096988 0.15432914
vt 0.98096988 0.34567086
vt 1.00000000 0.25000000
vn 0.38219484 0.92408176 1.9522197e-16
vn 0.35310199 0.92408176 0.14625963
vn 0.27025256 0.92408176 0.27025256
vn 0.14625963 0.92408176 0.35310199
vn 0.0000000e+0 0.92408176 0.38219484
vn -0.14625963 0.92408176 0.35310199
vn -0.27025256 0.92408176 0.27025256
vn -0.35310199 0.92408176 0.14625963
vn -0.38219484 0.92408176 3.9044395e-17
vn -0.35310199 0.92408176 -0.14625963
vn -0.27025256 0.92408176 -0.27025256
vn -0.14625963 0.92408176 -0.35310199
vn -5.3242356e-17 0.92408176 -0.38219484
vn 0.14625963 0.92408176 -0.35310199
vn 0.27025256 0.92408176 -0.27025256
vn 0.35310199 0.92408176 -0.14625963
vn 0.70658450 0.70762868 -5.7154588e-17
vn 0.65279895 0.70762868 0.27039818
vn 0.49963069 0.70762868 0.49963069
vn 0.27039818 0.70762868 0.65279895
vn 7.1443235e-18 0.70762868 0.70658450
vn -0.27039818 0.70762868 0.65279895
vn -0.49963069 0.70762868 0.49963069
vn -0.65279895 0.70762868 0.27039818
vn -0.70658450 0.70762868 1.1430918e-16
vn -0.65279895 0.70762868 -0.27039818
vn -0.49963069 0.70762868 -0.49963069
vn -0.27039818 0.70762868 -0.65279895
vn -7.8587558e-17 0.70762868 -0.70658450
vn 0.27039818 0.70762868 -0.65279895
vn 0.49963069 0.70762868 -0.49963069
vn 0.65279895 0.70762868 -0.27039818
vn 0.92368212 0.38315969 -5.0326702e-17
vn 0.85337100 0.38315969 0.35347784
vn 0.65314189 0.38315969 0.65314189
vn 0.35347784 0.38315969 0.85337100
vn 7.1895288e-18 0.38315969 0.92368212
vn -0.35347784 0.38315969 0.85337100
vn -0.65314189 0.38315969 0.65314189
vn -0.85337100 0.38315969 0.35347784
vn -0.92368212 0.38315969 1.9411728e-16
vn -0.85337100 0.38315969 -0.35347784
vn -0.65314189 0.38315969 -0.65314189
vn -0.35347784 0.38315969 -0.85337100
vn -1.5098011e-16 0.38315969 -0.92368212
vn 0.35347784 0.38315969 -0.85337100
vn 0.65314189 0.38315969 -0.65314189
vn 0.85337100 0.38315969 -0.35347784
vn 0.95228747 -0.30520250 -6.9639419e-17
vn 0.87979891 -0.30520250 0.36442464
vn 0.67336893 -0.30520250 0.67336893
vn 0.36442464 -0.30520250 0.87979891
vn 0.0000000e+0 -0.30520250 0.95228747
vn -0.36442464 -0.30520250 0.87979891
vn -0.67336893 -0.30520250 0.67336893
vn -0.87979891 -0.30520250 0.36442464
vn -0.95228747 -0.30520250 2.1866078e-16
vn -0.87979891 -0.30520250 -0.36442464
vn -0.67336893 -0.30520250 -0.67336893
vn -0.36442464 -0.30520250 -0.87979891
vn -1.9220013e-16 -0.30520250 -0.95228747
vn 0.36442464 -0.30520250 -0.87979891
vn 0.67336893 -0.30520250 -0.67336893
vn 0.87979891 -0.30520250 -0.36442464
vn -7.0801599e-18 1.00000000 -1.5487850e-17
g tree_tree_auv
usemtl tree_auv
s 1
f 1/49/1 17/58/17 32/53/32 16/45/16
f 1/49/1 65/37/65 2/44/2
f 2/44/2 18/56/18 17/58/17 1/49/1
f 2/44/2 65/37/65 3/41/3
f 3/41/3 19/51/19 18/56/18 2/44/2
f 3/41/3 65/37/65 4/38/4
f 4/38/4 20/40/20 19/51/19 3/41/3
f 4/38/4 65/37/65 5/36/5
f 5/36/5 21/35/21 20/40/20 4/38/4
f 5/36/5 65/37/65 6/28/6
f 6/28/6 22/25/22 21/35/21 5/36/5
f 6/28/6 65/37/65 7/26/7
f 7/26/7 23/15/23 22/25/22 6/28/6
f 7/26/7 65/37/65 8/21/8
f 8/21/8 24/13/24 23/15/23 7/26/7
f 8/21/8 65/37/65 9/18/9
f 9/18/9 25/9/25 24/13/24 8/21/8
f 9/18/9 65/37/65 10/22/10
f 10/22/10 26/11/26 25/9/25 9/18/9
f 10/22/10 65/37/65 11/24/11
f 11/24/11 27/14/27 26/11/26 10/22/10
f 11/24/11 65/37/65 12/27/12
f 12/27/12 28/23/28 27/14/27 11/24/11
f 12/27/12 65/37/65 13/31/13
f 13/31/13 29/32/29 28/23/28 12/27/12
f 13/31/13 65/37/65 14/39/14
f 14/39/14 30/43/30 29/32/29 13/31/13
f 14/39/14 65/37/65 15/42/15
f 15/42/15 31/52/31 30/43/30 14/39/14
f 15/42/15 65/37/65 16/45/16
f 16/45/16 32/53/32 31/52/31 15/42/15
f 16/45/16 65/37/65 1/49/1
f 17/58/17 33/64/33 48/60/48 32/53/32
f 18/56/18 34/61/34 33/64/33 17/58/17
f 19/51/19 35/55/35 34/61/34 18/56/18
f 20/40/20 36/46/36 35/55/35 19/51/19
f 21/35/21 37/34/37 36/46/36 20/40/20
f 22/25/22 38/20/38 37/34/37 21/35/21
f 23/15/23 39/12/39 38/20/38 22/25/22
f 24/13/24 40/6/40 39/12/39 23/15/23
f 25/9/25 41/4/41 40/6/40 24/13/24
f 26/11/26 42/5/42 41/4/41 25/9/25
f 27/14/27 43/10/43 42/5/42 26/11/26
f 28/23/28 44/19/44 43/10/43 27/14/27
f 29/32/29 45/29/45 44/19/44 28/23/28
f 30/43/30 46/47/46 45/29/45 29/32/29
f 31/52/31 47/54/47 46/47/46 30/43/30
f 32/53/32 48/60/48 47/54/47 31/52/31
f 33/64/33 49/66/49 64/62/64 48/60/48
f 34/61/34 50/63/50 49/66/49 33/64/33
f 35/55/35 51/57/51 50/63/50 34/61/34
f 36/46/36 52/48/52 51/57/51 35/55/35
f 37/34/37 53/33/53 52/48/52 36/46/36
f 38/20/38 54/17/54 53/33/53 37/34/37
f 39/12/39 55/8/55 54/17/54 38/20/38
f 40/6/40 56/3/56 55/8/55 39/12/39
f 41/4/41 57/1/57 56/3/56 40/6/40
f 42/5/42 58/2/58 57/1/57 41/4/41
f 43/10/43 59/7/59 58/2/58 42/5/42
f 44/19/44 60/16/60 59/7/59 43/10/43
f 45/29/45 61/30/61 60/16/60 44/19/44
f 46/47/46 62/50/62 61/30/61 45/29/45
f 47/54/47 63/59/63 62/50/62 46/47/46
f 48/60/48 64/62/64 63/59/63 47/54/47
f 50/67/50 51/69/51 52/72/52 53/73/53 54/75/54 55/77/55 56/79/56 57/81/57 58/80/58 59/78/59 60/76/60 61/74/61 62/71/62 63/70/63 64/68/64 49/65/49
